<?xml version="1.0" encoding="iso-8859-1"?>
<!-- Uploaded to: SVG Repo, www.svgrepo.com, Generator: SVG Repo Mixer Tools -->
<!DOCTYPE svg PUBLIC "-//W3C//DTD SVG 1.1//EN" "http://www.w3.org/Graphics/SVG/1.1/DTD/svg11.dtd">
<svg version="1.1" id="Capa_1" xmlns="http://www.w3.org/2000/svg" xmlns:xlink="http://www.w3.org/1999/xlink" 
	 width="800px" height="800px" viewBox="0 0 389.374 389.374"
	 xml:space="preserve">
<g>
	<g>
		<rect x="188.712" y="73.19" style="fill:#030303;" width="11.71" height="134.671"/>
		<polygon style="fill:#030303;" points="200.422,11.711 234.09,11.711 234.09,0 153.58,0 153.58,11.711 188.712,11.711 
			188.712,26.349 194.566,26.349 200.422,26.349 		"/>
		<path style="fill:#030303;" d="M344.241,81.985l23.799,23.807l8.279-8.28l-56.929-56.928l-8.279,8.276l24.839,24.845l-9.571,9.569
			c-33.107-35.009-79.938-56.926-131.812-56.926c-100.082,0-181.512,81.431-181.512,181.513
			c0,100.088,81.43,181.513,181.512,181.513c100.089,0,181.513-81.425,181.513-181.513c0-43.997-15.747-84.381-41.878-115.835
			L344.241,81.985z M194.566,377.663c-93.632,0-169.802-76.175-169.802-169.802c0-93.632,76.17-169.802,169.802-169.802
			c93.627,0,169.803,76.169,169.803,169.802C364.369,301.488,288.193,377.663,194.566,377.663z"/>
	</g>
</g>
</svg>